<svg xmlns="http://www.w3.org/2000/svg" xmlns:xlink="http://www.w3.org/1999/xlink" version="1.1" x="0px" y="0px" viewBox="0 0 100 100" enable-background="new 0 0 100 100" xml:space="preserve"><path d="M50,95c24.9,0,45-20.1,45-45C95,25.1,74.9,5,50,5C25.2,5,5,25.1,5,50C5,74.9,25.2,95,50,95L50,95z M28.9,51.4  c1.9-1.9,4.8-1.9,6.7,0c0.2,0.1,9.7,9.7,9.7,9.7V27.4c0-2.6,2.1-4.7,4.7-4.7c2.6,0,4.8,2.1,4.8,4.7v33.7c0,0,9.3-9.3,9.7-9.7  c1.9-1.9,4.9-1.9,6.7,0s1.9,4.8,0,6.7c-0.4,0.4-17.8,17.8-17.8,17.8c-1.9,1.9-4.8,1.9-6.7,0c0,0-17.7-17.7-17.8-17.8  C27,56.2,27,53.3,28.9,51.4z"></path></svg>