{
    "asset" : {
        "generator" : "Khronos glTF Blender I/O v3.3.27",
        "version" : "2.0"
    },
    "scene" : 0,
    "scenes" : [
        {
            "name" : "Scene",
            "nodes" : [
                0
            ]
        }
    ],
    "nodes" : [
        {
            "mesh" : 0,
            "name" : "flap",
            "rotation" : [
                0,
                0,
                -0.7071068286895752,
                0.7071067094802856
            ],
            "translation" : [
                0.06794968992471695,
                0.11140916496515274,
                -0.587435245513916
            ]
        }
    ],
    "animations" : [
        {
            "channels" : [
                {
                    "sampler" : 0,
                    "target" : {
                        "node" : 0,
                        "path" : "rotation"
                    }
                }
            ],
            "name" : "CubeAction",
            "samplers" : [
                {
                    "input" : 5,
                    "interpolation" : "LINEAR",
                    "output" : 6
                }
            ]
        }
    ],
    "materials" : [
        {
            "doubleSided" : true,
            "name" : "adventNumber",
            "pbrMetallicRoughness" : {}
        }
    ],
    "meshes" : [
        {
            "name" : "Cube.002",
            "primitives" : [
                {
                    "attributes" : {
                        "POSITION" : 0,
                        "NORMAL" : 1,
                        "TEXCOORD_0" : 2,
                        "TEXCOORD_1" : 3
                    },
                    "indices" : 4,
                    "material" : 0
                }
            ]
        }
    ],
    "accessors" : [
        {
            "bufferView" : 0,
            "componentType" : 5126,
            "count" : 29,
            "max" : [
                -0.0040642619132995605,
                0.007345058023929596,
                0.002359457314014435
            ],
            "min" : [
                -0.25406426191329956,
                -0.002482675015926361,
                -0.24764055013656616
            ],
            "type" : "VEC3"
        },
        {
            "bufferView" : 1,
            "componentType" : 5126,
            "count" : 29,
            "type" : "VEC3"
        },
        {
            "bufferView" : 2,
            "componentType" : 5126,
            "count" : 29,
            "type" : "VEC2"
        },
        {
            "bufferView" : 3,
            "componentType" : 5126,
            "count" : 29,
            "type" : "VEC2"
        },
        {
            "bufferView" : 4,
            "componentType" : 5123,
            "count" : 45,
            "type" : "SCALAR"
        },
        {
            "bufferView" : 5,
            "componentType" : 5126,
            "count" : 41,
            "max" : [
                1.6666666666666667
            ],
            "min" : [
                0
            ],
            "type" : "SCALAR"
        },
        {
            "bufferView" : 6,
            "componentType" : 5126,
            "count" : 41,
            "type" : "VEC4"
        }
    ],
    "bufferViews" : [
        {
            "buffer" : 0,
            "byteLength" : 348,
            "byteOffset" : 0,
            "target" : 34962
        },
        {
            "buffer" : 0,
            "byteLength" : 348,
            "byteOffset" : 348,
            "target" : 34962
        },
        {
            "buffer" : 0,
            "byteLength" : 232,
            "byteOffset" : 696,
            "target" : 34962
        },
        {
            "buffer" : 0,
            "byteLength" : 232,
            "byteOffset" : 928,
            "target" : 34962
        },
        {
            "buffer" : 0,
            "byteLength" : 90,
            "byteOffset" : 1160,
            "target" : 34963
        },
        {
            "buffer" : 0,
            "byteLength" : 164,
            "byteOffset" : 1252
        },
        {
            "buffer" : 0,
            "byteLength" : 656,
            "byteOffset" : 1416
        }
    ],
    "buffers" : [
        {
            "byteLength" : 2072,
            "uri" : "data:application/octet-stream;base64,"
        }
    ]
}
